<svg width="12" height="20" viewBox="0 0 12 20" fill="none" xmlns="http://www.w3.org/2000/svg">
<path d="M11.312 2.19898L11.3122 2.19916L11.3167 2.19324C11.6293 1.78022 11.5944 1.19397 11.2128 0.819833C10.794 0.409307 10.1159 0.409307 9.6971 0.819833L1.2149 9.13526L1.21471 9.13507L1.20986 9.14058L1.11567 9.24754L1.11547 9.24736L1.11099 9.25328C0.79839 9.66629 0.833261 10.2525 1.2149 10.6267L9.6971 18.9421L9.69692 18.9423L9.70251 18.947L9.81161 19.0394L9.81143 19.0396L9.81738 19.0439C10.2369 19.3491 10.8319 19.3155 11.2128 18.9421L11.213 18.9423L11.2178 18.9368L11.312 18.8298L11.3122 18.83L11.3167 18.8241C11.6293 18.4111 11.5944 17.8248 11.2128 17.4507L11.1428 17.5221L11.2128 17.4507L3.49091 9.88097L11.2128 2.31125L11.2129 2.31145L11.2178 2.30593L11.312 2.19898Z" fill="#272727" stroke="#272727" stroke-width="0.2"/>
</svg>
