<svg width="22" height="21" viewBox="0 0 22 21" fill="none" xmlns="http://www.w3.org/2000/svg">
<path d="M21 5.11194H15" stroke="#262A2F" stroke-width="1.5" stroke-miterlimit="10" stroke-linecap="round" stroke-linejoin="round"/>
<path d="M5 5.11194H1" stroke="#262A2F" stroke-width="1.5" stroke-miterlimit="10" stroke-linecap="round" stroke-linejoin="round"/>
<path d="M9 8.61194C10.933 8.61194 12.5 7.04494 12.5 5.11194C12.5 3.17894 10.933 1.61194 9 1.61194C7.067 1.61194 5.5 3.17894 5.5 5.11194C5.5 7.04494 7.067 8.61194 9 8.61194Z" stroke="#262A2F" stroke-width="1.5" stroke-miterlimit="10" stroke-linecap="round" stroke-linejoin="round"/>
<path d="M21 16.1119H17" stroke="#262A2F" stroke-width="1.5" stroke-miterlimit="10" stroke-linecap="round" stroke-linejoin="round"/>
<path d="M7 16.1119H1" stroke="#262A2F" stroke-width="1.5" stroke-miterlimit="10" stroke-linecap="round" stroke-linejoin="round"/>
<path d="M13 19.6119C14.933 19.6119 16.5 18.0449 16.5 16.1119C16.5 14.1789 14.933 12.6119 13 12.6119C11.067 12.6119 9.5 14.1789 9.5 16.1119C9.5 18.0449 11.067 19.6119 13 19.6119Z" stroke="#262A2F" stroke-width="1.5" stroke-miterlimit="10" stroke-linecap="round" stroke-linejoin="round"/>
</svg>
