<svg width="24" height="25" viewBox="0 0 24 25" fill="none" xmlns="http://www.w3.org/2000/svg">
<path d="M17.54 9.42195C19.1747 9.42195 20.5 8.09672 20.5 6.46195C20.5 4.82719 19.1747 3.50195 17.54 3.50195C15.9052 3.50195 14.58 4.82719 14.58 6.46195C14.58 8.09672 15.9052 9.42195 17.54 9.42195Z" fill="black"/>
<path d="M6.46 9.42195C8.09476 9.42195 9.42 8.09672 9.42 6.46195C9.42 4.82719 8.09476 3.50195 6.46 3.50195C4.82524 3.50195 3.5 4.82719 3.5 6.46195C3.5 8.09672 4.82524 9.42195 6.46 9.42195Z" fill="black"/>
<path d="M17.54 21.7219C19.1747 21.7219 20.5 20.3966 20.5 18.7619C20.5 17.1271 19.1747 15.8019 17.54 15.8019C15.9052 15.8019 14.58 17.1271 14.58 18.7619C14.58 20.3966 15.9052 21.7219 17.54 21.7219Z" fill="black"/>
<path d="M6.46 21.7219C8.09476 21.7219 9.42 20.3966 9.42 18.7619C9.42 17.1271 8.09476 15.8019 6.46 15.8019C4.82524 15.8019 3.5 17.1271 3.5 18.7619C3.5 20.3966 4.82524 21.7219 6.46 21.7219Z" fill="black"/>
</svg>
