<svg width="20" height="21" viewBox="0 0 20 21" fill="none" xmlns="http://www.w3.org/2000/svg">
<path d="M19.555 9.35444L18.195 7.77444C17.935 7.47444 17.725 6.91444 17.725 6.51444V4.81444C17.725 3.75444 16.855 2.88444 15.795 2.88444H14.095C13.705 2.88444 13.135 2.67444 12.835 2.41444L11.255 1.05444C10.565 0.464438 9.435 0.464438 8.735 1.05444L7.165 2.42444C6.865 2.67444 6.295 2.88444 5.905 2.88444H4.175C3.115 2.88444 2.245 3.75444 2.245 4.81444V6.52444C2.245 6.91444 2.035 7.47444 1.785 7.77444L0.435 9.36444C-0.145 10.0544 -0.145 11.1744 0.435 11.8644L1.785 13.4544C2.035 13.7544 2.245 14.3144 2.245 14.7044V16.4144C2.245 17.4744 3.115 18.3444 4.175 18.3444H5.905C6.295 18.3444 6.865 18.5544 7.165 18.8144L8.745 20.1744C9.435 20.7644 10.565 20.7644 11.265 20.1744L12.845 18.8144C13.145 18.5544 13.705 18.3444 14.105 18.3444H15.805C16.865 18.3444 17.735 17.4744 17.735 16.4144V14.7144C17.735 14.3244 17.945 13.7544 18.205 13.4544L19.565 11.8744C20.145 11.1844 20.145 10.0444 19.555 9.35444ZM14.155 8.72444L9.325 13.5544C9.185 13.6944 8.995 13.7744 8.795 13.7744C8.595 13.7744 8.405 13.6944 8.265 13.5544L5.845 11.1344C5.555 10.8444 5.555 10.3644 5.845 10.0744C6.135 9.78444 6.615 9.78444 6.905 10.0744L8.795 11.9644L13.095 7.66444C13.385 7.37444 13.865 7.37444 14.155 7.66444C14.445 7.95444 14.445 8.43444 14.155 8.72444Z" fill="#F4B7A8"/>
<path d="M14.1554 8.72537L9.32543 13.5554C9.18543 13.6954 8.99543 13.7754 8.79543 13.7754C8.59543 13.7754 8.40543 13.6954 8.26543 13.5554L5.84543 11.1354C5.55543 10.8454 5.55543 10.3654 5.84543 10.0754C6.13543 9.78538 6.61543 9.78538 6.90543 10.0754L8.79543 11.9654L13.0954 7.66538C13.3854 7.37538 13.8654 7.37538 14.1554 7.66538C14.4454 7.95538 14.4454 8.43537 14.1554 8.72537Z" fill="white"/>
</svg>
