<svg width="35" height="36" viewBox="0 0 35 36" fill="none" xmlns="http://www.w3.org/2000/svg">
<path d="M26.3072 20.3731C25.6947 20.971 25.3447 21.8315 25.4322 22.7502C25.5634 24.3252 27.0072 25.4773 28.5822 25.4773H31.353V27.2127C31.353 30.2314 28.8884 32.696 25.8697 32.696H9.12799C6.10924 32.696 3.64465 30.2314 3.64465 27.2127V17.3981C3.64465 14.3794 6.10924 11.9148 9.12799 11.9148H25.8697C28.8884 11.9148 31.353 14.3794 31.353 17.3981V19.4981H28.4072C27.5905 19.4981 26.8467 19.8189 26.3072 20.3731Z" stroke="black" stroke-width="2.18" stroke-linecap="round" stroke-linejoin="round"/>
<path d="M3.64465 18.7096V12.0451C3.64465 10.3097 4.70924 8.76377 6.32799 8.15127L17.9072 3.77627C19.7155 3.09086 21.6551 4.43257 21.6551 6.37215V11.9138" stroke="black" stroke-width="2.18" stroke-linecap="round" stroke-linejoin="round"/>
<path d="M32.8987 20.9844V23.9886C32.8987 24.7907 32.257 25.4469 31.4403 25.4761H28.582C27.007 25.4761 25.5633 24.324 25.432 22.749C25.3445 21.8303 25.6945 20.9698 26.307 20.3719C26.8466 19.8177 27.5903 19.4969 28.407 19.4969H31.4403C32.257 19.5261 32.8987 20.1823 32.8987 20.9844Z" stroke="black" stroke-width="2.18" stroke-linecap="round" stroke-linejoin="round"/>
<path d="M10.2087 18.1121H20.4171" stroke="black" stroke-width="2.18" stroke-linecap="round" stroke-linejoin="round"/>
</svg>
